<?xml version="1.0" encoding="utf-8"?>
<!-- Generator: Adobe Illustrator 24.1.0, SVG Export Plug-In . SVG Version: 6.00 Build 0)  -->
<svg version="1.1"
	 id="svg2" xmlns:cc="http://creativecommons.org/ns#" xmlns:dc="http://purl.org/dc/elements/1.1/" xmlns:rdf="http://www.w3.org/1999/02/22-rdf-syntax-ns#" xmlns:svg="http://www.w3.org/2000/svg"
	 xmlns="http://www.w3.org/2000/svg" xmlns:xlink="http://www.w3.org/1999/xlink" x="0px" y="0px" viewBox="0 0 915 580"
	 style="enable-background:new 0 0 915 580;" xml:space="preserve">
<style type="text/css">
	.st0{fill:none;}
	.st1{fill:none;stroke:#000000;stroke-width:2.6667;}
</style>
<path id="path2782" class="st0" d="M0,0"/>
<path id="path1030_1_" class="st1" d="M682.5,414.2c-0.2-0.6-2-5.3-6.5-6.8c-3.5-1.1-7.1,0.1-9.3,2.5c-4,4.4-3.8,13-0.9,17.6
	c5.6,8.8,24.2,7.7,32.2-3.5c6.2-8.8,5.2-23,1.1-32.2c-12.2-27.9-64.8-39.8-98.7-14.4c-27.8,20.9-40.4,64.9-33.7,99.6
	c14.1,73.3,115.9,115.6,190.6,94.8c32.1-9,56.7-30.3,67.5-39.6c0,0,39.6-34.2,64-86.4c37-79,31-191.6-4.6-270.2
	C792.1-27.5,503-0.2,474.3,2.9C337.7,18,245.4,90.1,227.7,104.4C29.3,264,5.4,536.6,2.2,580"/>
</svg>
